<?xml version="1.0" encoding="UTF-8" standalone="no"?>
<svg
   id="Layer_2"
   data-name="Layer 2"
   viewBox="0 0 630.00041 141.65857"
   version="1.1"
   sodipodi:docname="contactdevider.svg"
   width="630.00043"
   height="141.65857"
   inkscape:version="1.3.2 (091e20ef0f, 2023-11-25)"
   xmlns:inkscape="http://www.inkscape.org/namespaces/inkscape"
   xmlns:sodipodi="http://sodipodi.sourceforge.net/DTD/sodipodi-0.dtd"
   xmlns="http://www.w3.org/2000/svg"
   xmlns:svg="http://www.w3.org/2000/svg">
  <sodipodi:namedview
     id="namedview14"
     pagecolor="#ffffff"
     bordercolor="#000000"
     borderopacity="0.25"
     inkscape:showpageshadow="2"
     inkscape:pageopacity="0.0"
     inkscape:pagecheckerboard="0"
     inkscape:deskcolor="#d1d1d1"
     inkscape:zoom="1.8296391"
     inkscape:cx="206.32484"
     inkscape:cy="98.926613"
     inkscape:window-width="1888"
     inkscape:window-height="1006"
     inkscape:window-x="15"
     inkscape:window-y="57"
     inkscape:window-maximized="1"
     inkscape:current-layer="g9"
     showgrid="false" />
  <defs
     id="defs1">
    <style
       id="style1">
      .cls-1 {
        fill: #f69c33;
      }

      .cls-1, .cls-2, .cls-3, .cls-4 {
        stroke-width: 0px;
      }

      .cls-2 {
        fill: #ee645a;
      }

      .cls-3 {
        fill: #846cae;
      }

      .cls-4 {
        fill: #178baa;
      }
    </style>
  </defs>
  <g
     id="g9"
     transform="matrix(1.0582599,0,0,0.79189728,-0.0024311,-282.12729)">
    <path
       d="m 12.618822,457.14275 c 1.64575,0.15985 3.339984,0.37961 5.108622,0.71525 -0.01325,-0.003 -0.02734,-0.007 -0.0406,-0.01 -1.754164,-0.33155 -3.435154,-0.54719 -5.068019,-0.70539 z"
       style="fill:#178baa;stroke-width:1.09237"
       id="path3" />
    <path
       d="m 0.00229726,356.26753 v 53.56252 c 4.14743274,-0.3734 8.60778614,-0.59672 13.31231674,-0.49327 6.012365,0.13219 12.375249,0.7667 18.817742,2.19015 39.362126,8.70113 34.237885,36.41032 64.677224,43.99541 27.66269,6.89008 47.54694,-7.56141 154.75545,-27.99103 36.50224,-6.9569 50.88463,-8.37205 56.99952,-3.73411 14.69451,11.14708 -41.25438,39.94405 -28.92056,65.88706 14.96487,31.48983 122.22594,47.77708 161.19291,39.43013 77.80589,-16.66647 132.35032,-13.889 154.48229,-11.5279 V 356.26753 c 0,0 -1.24649,0 -2.79423,0 H 2.7965364 c -1.547744,0 -2.79423914,0 -2.79423914,0 z"
       style="fill:#178baa;stroke-width:1.09237"
       id="path1" />
    <path
       d="m 595.31919,517.58649 c -22.13197,-2.3611 -76.6764,-5.13857 -154.48229,11.5279 -38.96697,8.34695 -146.22804,-7.9403 -161.19291,-39.43013 -12.33382,-25.94301 43.61507,-54.73998 28.92056,-65.88706 -6.11489,-4.63794 -20.49728,-3.22279 -56.99952,3.73411 C 144.35652,447.96093 124.47227,462.41242 96.80958,455.52234 66.370241,447.93725 71.494482,420.22806 32.132356,411.52693 25.689863,410.10348 19.326979,409.46897 13.314614,409.33678 8.6100834,409.23333 4.14973,409.45665 0.00229726,409.83005 V 535.1521 c 0,10e-6 1.24649514,0 2.79423914,0 H 592.52496 c 1.54774,0 2.79423,10e-6 2.79423,0 z M 7.1078592,456.86405 c 3.2120778,-0.0125 6.7589698,0.26208 10.5789818,0.98409 0.01326,0.003 0.02735,0.007 0.0406,0.01 -1.768638,-0.33564 -3.462872,-0.5554 -5.108622,-0.71525 -0.13971,-0.0135 -0.294941,-0.0468 -0.433716,-0.0592 -1.77104,-0.15857 -3.4666713,-0.22566 -5.0772468,-0.21951 z"
       style="fill:#f69c33;stroke-width:0px"
       id="path2" />
  </g>
</svg>
