<?xml version="1.0" encoding="UTF-8" standalone="no"?>
<svg
   id="Layer_2"
   data-name="Layer 2"
   viewBox="0 92.02 595.31767 520.47069"
   version="1.1"
   sodipodi:docname="heading2.svg"
   width="595.31769"
   height="520.4707"
   inkscape:version="1.3.2 (091e20ef0f, 2023-11-25)"
   xmlns:inkscape="http://www.inkscape.org/namespaces/inkscape"
   xmlns:sodipodi="http://sodipodi.sourceforge.net/DTD/sodipodi-0.dtd"
   xmlns="http://www.w3.org/2000/svg"
   xmlns:svg="http://www.w3.org/2000/svg">
  <sodipodi:namedview
     id="namedview14"
     pagecolor="#ffffff"
     bordercolor="#000000"
     borderopacity="0.25"
     inkscape:showpageshadow="2"
     inkscape:pageopacity="0.0"
     inkscape:pagecheckerboard="0"
     inkscape:deskcolor="#d1d1d1"
     inkscape:zoom="0.67359499"
     inkscape:cx="379.30805"
     inkscape:cy="320.66747"
     inkscape:window-width="1888"
     inkscape:window-height="1006"
     inkscape:window-x="15"
     inkscape:window-y="57"
     inkscape:window-maximized="1"
     inkscape:current-layer="Layer_2" />
  <defs
     id="defs1">
    <style
       id="style1">
      .cls-1 {
        fill: #f69c33;
      }

      .cls-1, .cls-2, .cls-3, .cls-4 {
        stroke-width: 0px;
      }

      .cls-2 {
        fill: #ee645a;
      }

      .cls-3 {
        fill: #846cae;
      }

      .cls-4 {
        fill: #178baa;
      }
    </style>
  </defs>
  <path
     d="m 55.34375,518.89109 c -23.925733,0.7484 -55.31640625,27.10938 -55.31640625,27.10938 v 35 L 0.01953125,612.4907 H 595.30859 v -40.49023 c 0,0 -20.28127,-20.00002 -37.28125,-29 -25.83994,-13.67998 -43.479,-1.27086 -87.8789,-2.88086 -15.62998,-0.57 -39.06983,-3.07893 -67.75977,-12.87891 -8.09998,0.07 -18.92066,0.36891 -31.64062,1.37891 0,0 -15.23957,1.20945 -30.26953,3.43945 -50.7999,7.54998 -118.11128,57.86139 -175.45118,45.94141 -48.0699,-9.98998 -55.37008,-41.51096 -99.999996,-57.71094 -2.999994,-1.09 -6.265632,-1.50535 -9.683594,-1.39844 z"
     style="fill:#ee645a;stroke-width:0px"
     id="path22" />
  <path
     class="cls-1"
     d="M 0.02770267,576 V 473.13 C 6.6877027,463.16 17.557703,450.32 34.367703,442.64 c 27.1,-12.38 49.17,-1.96 88.659997,6.36 90.24,19.02 116.15,-5.63 193.38,24.59 19.73,7.72 17.62,9.16 30.96,13.07 51.37,15.04 87.38,-5 143.67,-13.53 24.15,-3.66 59.54,-6.34 104.28,0 V 595 c -21.51,-17.85 -46.58,-33.98 -61.52,-25.79 -11.3,6.19 -5.86,20.3 -15.13,28.89 -28.5,26.39 -117.98,-71.62 -208.43,-50.22 -24.1,5.7 -18.23,12.78 -58.47,26.14 -38.81,12.88 -86.08,28.58 -129.71,10.97 -42.219997,-17.03 -50.429997,-53.55 -77.999997,-50 -20.39,2.62 -34.8000003,23.23 -44.00000033,41 z"
     id="path7" />
  <g
     id="g9"
     transform="translate(-0.00229733)">
    <path
       class="cls-4"
       d="m 0.03,425.39 c 7.05,-15.88 18.98,-35.48 38.46,-40.53 20,-5.19 38.23,7.47 51.54,15.22 15.22,8.86 65.3,1.26 153,32.92 36,13 111,22 140,17 29,-5 111,-49.96 111,-49.96 L 595.31,394 v 114 c 0,0 -12.57,-7 -41.01,-11.38 -56.18,-8.64 -83.49,2.15 -136.26,4.38 -86.83,3.66 -88.28,-28.33 -139.62,-13 -47.98,14.33 -56.51,45.19 -103.71,45.44 -7.88,0.04 -46.13,0.24 -65.35,-24.08 -8.29,-10.49 -5.76,-16.32 -15.82,-29.58 -6.99,-9.2 -28.89,-31.1 -50.22,-28.89 -22.06,2.29 -44.21,30.19 -43.29,67.42 V 503.1 c 0,-2.65 0,-5.3 0,-7.95 z"
       id="path8" />
    <path
       class="cls-4"
       d="m 0.03,425.39 c 7.05,-15.88 18.98,-35.48 38.46,-40.53 20,-5.19 38.23,7.47 51.54,15.22 15.22,8.86 65.3,1.26 153,32.92 36,13 111,22 140,17 29,-5 111,-49.96 111,-49.96 L 595.31,394 v 114 c 0,0 -12.57,-7 -41.01,-11.38 -56.18,-8.64 -83.49,2.15 -136.26,4.38 -86.83,3.66 -88.28,-28.33 -139.62,-13 -47.98,14.33 -56.51,45.19 -103.71,45.44 -7.88,0.04 -46.13,0.24 -65.35,-24.08 -8.29,-10.49 -5.76,-16.32 -15.82,-29.58 -6.99,-9.2 -28.89,-31.1 -50.22,-28.89 -22.06,2.29 -44.21,30.19 -43.29,67.42 V 503.1 c 0,-2.65 0,-5.3 0,-7.95 z"
       id="path9" />
  </g>
  <path
     class="cls-3"
     d="m 0.02770267,366 v 87 C 2.3677027,418.95 20.167703,393.77 39.337703,391.45 c 19.7,-2.39 38.97,19.59 47.69,29.55 11.11,12.67 14.209997,21.82 18.189997,27.83 21.56,32.57 78.28,-5.41 163.81,9.17 15.24,2.6 8.23,2.74 38.43,9.4 65.13,14.36 105.6,22.8 144.98,7.65 15.61,-6.01 17.51,-2.49 40.59,-25.05 44,-43 102.28,-43 102.28,-43 v -79.98 l -140.28,41.98 -91,26 -107,-27 -80,-21 -79.999997,-5 c -2.56,-2.35 -22.13,-19.78 -49.59,-15.62 -21.51,3.26 -39.6900003,18.53 -47.41000033,39.62 z"
     id="path10" />
  <path
     class="cls-2"
     d="M 0.02770267,390 V 298 L 80.027703,281 C 123.7377,275.72 167.4477,270.44 211.1577,265.16 c 27.29,23.45 54.58,46.89 81.87,70.34 l 62,26.5 c 27.02,-17.15 54.05,-34.29 81.07,-51.44 1.43,-33.12 20.75,-62.81 50.22,-77.04 43.03,-20.79 83.33,3.17 85.99,4.82 7.67,2.89 15.33,5.78 23,8.67 v 124 c 0,0 -8.28,-28 -78.28,-10 -20.78,5.34 -35.66,11.57 -47.48,18.05 -38.56,21.13 -39.92,27.77 -70.52,41.95 -26.03,12.07 -61.87,28.68 -86.75,14.07 -17.08,-10.03 -17.58,-24.38 -34.39,-27.52 -12.94,-2.42 -25.09,4.48 -33.02,10.32 -13.27,7.01 -31.25,13.56 -46.78,6.88 -29.15,-12.54 -22.09,-60.05 -51.06,-70.75 -20.75,-7.66 -33.94,12.87 -59.689997,3.34 -20.36,-7.54 -22.37,-24.18 -35.77,-25.45 -11.41,-1.08 -28.09,9.27 -51.54000033,58.11 z"
     id="path11" />
  <path
     class="cls-1"
     d="m 0.02770267,312 c 0,0 24.34000033,-22.22 56.08000033,-18.17 18.5,2.36 22.43,12.49 37.92,18.17 47.719997,17.51 96.489997,-45.68 119.879997,-30.33 21.55,14.14 -4.15,78.09 16.51,88.05 14.6,7.04 37.58,-20.01 51.61,-10.72 8.18,5.42 3.29,16.54 9.61,25.85 17.12,25.22 105.4,20.74 139.39,-25.85 21.49,-29.46 4.75,-53.09 33.27,-90.4 8.55,-11.19 24.24,-31.7 48.84,-35.77 0,0 16.36,-2.71 82.16,27.67 v 0 -97.5 c -51.23,0.35 -102.47,0.69 -153.7,1.04 -19.19,36.28 -38.38,72.56 -57.57,108.83 -40.2,-22.29 -80.39,-44.58 -120.59,-66.87 -23,-3.98 -48.31,-7.2 -75.67,-8.94 -46.42,-2.96 -88.139997,-1.02 -123.739997,2.94 -21.33,7.34 -42.67,14.67 -64.00000033,22.01 z"
     id="path12" />
  <path
     class="cls-4"
     d="m 0.02770267,260.5 c 29.02000033,10.23 68.98000033,18.58 101.99999733,0 19.34,-10.88 19.62,-21.61 39.65,-33.86 34.03,-20.8 86.06,-22.14 121.76,-1.38 53.18,30.93 39.27,92.96 76.59,101.74 35.41,8.33 90.23,-37.55 101.57,-86.61 6.86,-29.69 -4.46,-50.76 8.94,-60.54 13.81,-10.06 34.1,6.27 75.48,13.14 28.64,4.76 53.03,2.6 69.28,0 v -76 c -31.91,6.59 -74.03,12.19 -123.43,10.58 -49.39,-1.61 -91.04,-9.93 -122.45,-18.57 -42.42,1.61 -84.84,3.21 -127.26,4.82 -38.71,10.06 -77.42,20.12 -116.13,30.18 L 15.027703,165 0.02770267,176.25 Z"
     id="path13" />
  <path
     class="cls-3"
     d="M 0.02770267,207 C 11.897703,202.89 29.057703,195.63 46.927703,182.46 c 16.65,-12.27 20.47,-19.77 31.04,-26.78 26.539997,-17.62 59.159997,-8.04 81.589997,-4.7 68.06,10.14 76.08,-32.07 153.4,-35.77 82.91,-3.97 103.79,43.11 206.06,41.67 32.45,-0.46 58.98,-5.6 76.28,-9.86 v -55 H 0.02770267 v 115 z"
     id="path14" />
</svg>
