<?xml version="1.0" standalone="no"?>
<!DOCTYPE svg PUBLIC "-//W3C//DTD SVG 20010904//EN"
 "http://www.w3.org/TR/2001/REC-SVG-20010904/DTD/svg10.dtd">
<svg version="1.0" xmlns="http://www.w3.org/2000/svg"
 width="700.000000pt" height="700.000000pt" viewBox="0 0 700.000000 700.000000"
 preserveAspectRatio="xMidYMid meet">
<metadata>
Created by potrace 1.14, written by Peter Selinger 2001-2017
</metadata>
<g transform="translate(0.000000,700.000000) scale(0.100000,-0.100000)"
fill="#000000" stroke="none">
<path d="M0 3500 l0 -3500 3500 0 3500 0 0 3500 0 3500 -3500 0 -3500 0 0
-3500z m4071 2826 c1 -61 2 -145 4 -186 1 -41 5 -183 9 -315 4 -132 9 -310 11
-395 3 -85 7 -254 10 -375 5 -241 14 -620 21 -870 6 -252 4 -891 -7 -1866 l-3
-257 -130 -37 c-72 -20 -158 -45 -191 -55 -52 -16 -160 -48 -190 -56 -66 -18
-264 -75 -445 -128 -123 -36 -229 -66 -235 -66 -8 0 -12 77 -14 253 -2 138 -4
353 -6 477 -2 124 -6 443 -9 710 -6 436 -11 734 -21 1240 -6 262 -6 1353 -1
1485 6 150 14 276 22 335 3 25 7 57 8 70 6 53 17 70 44 71 15 0 43 2 62 4 33
3 125 9 285 20 39 3 104 7 145 10 41 3 109 8 150 11 41 2 102 7 135 9 33 3
103 7 155 11 52 3 96 7 97 8 1 1 23 2 48 2 l45 1 1 -111z m8 -4710 c53 -162
70 -257 75 -422 5 -155 -30 -375 -85 -541 l-21 -63 -594 0 c-468 0 -594 3
-595 13 -2 24 -1 74 6 327 4 140 8 281 8 312 l1 57 111 40 c60 22 207 74 325
115 118 42 224 80 235 85 47 21 472 170 486 170 12 1 25 -25 48 -93z"/>
</g>
</svg>
