<?xml version="1.0" encoding="UTF-8" standalone="no"?>
<svg
   id="Layer_2"
   data-name="Layer 2"
   viewBox="0 0 595.28117 118.45083"
   version="1.1"
   sodipodi:docname="blog devider.svg"
   width="595.28119"
   height="118.45083"
   inkscape:version="1.3.2 (091e20ef0f, 2023-11-25)"
   xmlns:inkscape="http://www.inkscape.org/namespaces/inkscape"
   xmlns:sodipodi="http://sodipodi.sourceforge.net/DTD/sodipodi-0.dtd"
   xmlns="http://www.w3.org/2000/svg"
   xmlns:svg="http://www.w3.org/2000/svg">
  <sodipodi:namedview
     id="namedview14"
     pagecolor="#ffffff"
     bordercolor="#000000"
     borderopacity="0.25"
     inkscape:showpageshadow="2"
     inkscape:pageopacity="0.0"
     inkscape:pagecheckerboard="0"
     inkscape:deskcolor="#d1d1d1"
     inkscape:zoom="0.88314511"
     inkscape:cx="115.49631"
     inkscape:cy="73.600589"
     inkscape:window-width="1888"
     inkscape:window-height="1006"
     inkscape:window-x="15"
     inkscape:window-y="57"
     inkscape:window-maximized="1"
     inkscape:current-layer="Layer_2" />
  <defs
     id="defs1">
    <style
       id="style1">
      .cls-1 {
        fill: #f69c33;
      }

      .cls-1, .cls-2, .cls-3, .cls-4 {
        stroke-width: 0px;
      }

      .cls-2 {
        fill: #ee645a;
      }

      .cls-3 {
        fill: #846cae;
      }

      .cls-4 {
        fill: #178baa;
      }
    </style>
  </defs>
  <path
     style="fill:#ee645a;fill-opacity:1;stroke-width:0.916717"
     d="M 2.4e-4,31.052327 V -7.316237e-5 H 595.2815 V 118.4509 L 2.4e-4,114.66923 Z"
     id="path24" />
  <path
     d="m 64.31445,0.01137684 c -1.43919,0.0598 -2.87696,0.35742 -4.31445,0.91992 C 37.0002,9.9312168 0,36.950837 0,36.950827 v 19 62.500003 c 0,0 1.11986,0 2.50976,0 H 595.2812 V 83.950827 c -48.9195,-18.77983 -72.5905,-12.86959 -85.1503,-3.17968 -14.5599,11.2399 -17.7512,30.300093 -32.7911,31.830083 -10.7698,1.09998 -23.2092,-7.24074 -28.1992,-17.890633 -10.5399,-22.48981 16.6399,-45.72919 8.25,-60.53906 -8.9499,-15.80986 -50.5408,-8.11021 -65.3906,-5.24024 -192.54834,37.27967 -219.67034,44.10989 -256,32 C 107.87524,51.556377 85.9024,-0.88583316 64.31445,0.01137684 Z"
     style="fill:#846cae;stroke-width:0px"
     id="path26" />
</svg>
