<?xml version="1.0" encoding="UTF-8" standalone="no"?>
<svg
   id="Layer_2"
   data-name="Layer 2"
   viewBox="0 0 630.00041 141.65857"
   version="1.1"
   sodipodi:docname="footerdevider.svg"
   width="630.00043"
   height="141.65857"
   inkscape:version="1.3.2 (091e20ef0f, 2023-11-25)"
   xmlns:inkscape="http://www.inkscape.org/namespaces/inkscape"
   xmlns:sodipodi="http://sodipodi.sourceforge.net/DTD/sodipodi-0.dtd"
   xmlns="http://www.w3.org/2000/svg"
   xmlns:svg="http://www.w3.org/2000/svg">
  <sodipodi:namedview
     id="namedview14"
     pagecolor="#ffffff"
     bordercolor="#000000"
     borderopacity="0.25"
     inkscape:showpageshadow="2"
     inkscape:pageopacity="0.0"
     inkscape:pagecheckerboard="0"
     inkscape:deskcolor="#d1d1d1"
     inkscape:zoom="1.2937502"
     inkscape:cx="542.99509"
     inkscape:cy="-24.734296"
     inkscape:window-width="938"
     inkscape:window-height="1006"
     inkscape:window-x="965"
     inkscape:window-y="57"
     inkscape:window-maximized="1"
     inkscape:current-layer="g9"
     showgrid="false" />
  <defs
     id="defs1">
    <style
       id="style1">
      .cls-1 {
        fill: #f69c33;
      }

      .cls-1, .cls-2, .cls-3, .cls-4 {
        stroke-width: 0px;
      }

      .cls-2 {
        fill: #ee645a;
      }

      .cls-3 {
        fill: #846cae;
      }

      .cls-4 {
        fill: #178baa;
      }
    </style>
  </defs>
  <g
     id="g9"
     transform="matrix(1.0582599,0,0,0.79189728,-0.0024311,-282.12729)">
    <path
       d="m 12.618822,411.28029 c 1.64575,0.15985 3.339984,0.37961 5.108622,0.71525 -0.01325,-0.003 -0.02734,-0.007 -0.0406,-0.01 -1.754164,-0.33155 -3.435154,-0.54719 -5.068019,-0.70539 z"
       style="fill:#178baa;stroke-width:1.09237"
       id="path3" />
    <rect
       style="fill:#846cae;fill-opacity:1;stroke-width:0.941987"
       id="rect2"
       width="595.31732"
       height="133.02237"
       x="0.0022659793"
       y="402.13019"
       rx="2.7937646"
       ry="5.1814528e-05" />
    <path
       d="m 0.00226598,355.17587 v 46.95432 6.05394 2.95311 3.29147 C 19.742396,419.05136 78.282996,411.47158 100.28111,409.8002 c 22.00151,-1.67161 59.00537,-4.01238 80.00679,-5.68402 21.00141,-1.67161 39.35469,2.03989 71.95811,10.75822 19.9399,5.33203 31.46698,21.61489 98.61782,21.61489 22.25674,0 51.84593,-34.35857 85.28889,1.56682 11.72717,12.59767 120.39188,-28.83418 141.3933,-25.49092 16.70535,2.65931 14.805,22.6105 17.77313,18.63148 v -13.70753 -3.06295 -12.296 -46.95432 c 0,-1.1e-4 -3.42554,0 -7.68138,0 H 7.683655 c -4.25584,0 -7.68138902,-1.1e-4 -7.68138902,0 z"
       style="fill:#ee645a;stroke-width:0.967117"
       id="path1" />
  </g>
</svg>
