<?xml version="1.0" encoding="UTF-8" standalone="no"?>
<svg
   id="Layer_2"
   data-name="Layer 2"
   viewBox="0 0 630.00041 350.91546"
   version="1.1"
   sodipodi:docname="heading.svg"
   width="630.00043"
   height="350.91547"
   inkscape:version="1.3.2 (091e20ef0f, 2023-11-25)"
   xmlns:inkscape="http://www.inkscape.org/namespaces/inkscape"
   xmlns:sodipodi="http://sodipodi.sourceforge.net/DTD/sodipodi-0.dtd"
   xmlns="http://www.w3.org/2000/svg"
   xmlns:svg="http://www.w3.org/2000/svg">
  <sodipodi:namedview
     id="namedview14"
     pagecolor="#ffffff"
     bordercolor="#000000"
     borderopacity="0.25"
     inkscape:showpageshadow="2"
     inkscape:pageopacity="0.0"
     inkscape:pagecheckerboard="0"
     inkscape:deskcolor="#d1d1d1"
     inkscape:zoom="0.91481957"
     inkscape:cx="-22.955346"
     inkscape:cy="310.44373"
     inkscape:window-width="1888"
     inkscape:window-height="1006"
     inkscape:window-x="15"
     inkscape:window-y="57"
     inkscape:window-maximized="1"
     inkscape:current-layer="g9" />
  <defs
     id="defs1">
    <style
       id="style1">
      .cls-1 {
        fill: #f69c33;
      }

      .cls-1, .cls-2, .cls-3, .cls-4 {
        stroke-width: 0px;
      }

      .cls-2 {
        fill: #ee645a;
      }

      .cls-3 {
        fill: #846cae;
      }

      .cls-4 {
        fill: #178baa;
      }
    </style>
  </defs>
  <path
     d="m 54.68949,350.91547 c -2.538836,-0.29689 -5.179616,-0.40625 -8.064458,-0.12829 -0.244595,0.0235 -0.464063,0.10117 -0.707032,0.12829 z"
     style="fill:#f69c33;stroke-width:0px"
     id="path63" />
  <path
     d="M 67.640671,273.20408 C 57.130362,272.84225 47.123721,273.9794 36.369166,277.65579 18.579834,283.73754 7.048004,293.90515 0,301.80035 l 0.0292969,49.11512 c 0.02577238,-2e-5 1.3060476,0 2.9277364,0 H 45.918 c 0.242969,-0.0272 0.462437,-0.10475 0.707032,-0.12829 2.884842,-0.27796 5.525622,-0.1686 8.064458,0.12829 h 574.58047 0.73047 v -49.11512 c -47.34649,-5.02062 -84.79859,-2.89833 -110.35555,0 -59.56939,6.75489 -97.6764,22.62304 -152.03916,10.71292 -14.11717,-3.09632 -11.88425,-4.23488 -32.76369,-10.34832 -81.72934,-23.9311 -109.14935,-4.41266 -204.64663,-19.47454 -26.11915,-4.11786 -45.037548,-8.88329 -62.554729,-9.48633 z"
     style="fill:#f69c33;stroke-width:0px"
     id="path62"
     sodipodi:nodetypes="scccsccccccccccs" />
  <g
     id="g9"
     transform="matrix(1.0582599,0,0,0.79189728,-0.00243117,-72.870387)">
    <path
       class="cls-4"
       d="m 0.03,425.39 c 7.05,-15.88 18.98,-35.48 38.46,-40.53 20,-5.19 38.23,7.47 51.54,15.22 15.22,8.86 65.3,1.26 153,32.92 36,13 111,22 140,17 29,-5 111,-49.96 111,-49.96 L 595.31,394 v 114 c 0,0 -12.57,-7 -41.01,-11.38 -56.18,-8.64 -83.49,2.15 -136.26,4.38 -86.83,3.66 -88.28,-28.33 -139.62,-13 -47.98,14.33 -56.51,45.19 -103.71,45.44 -7.88,0.04 -46.13,0.24 -65.35,-24.08 -8.29,-10.49 -5.76,-16.32 -15.82,-29.58 -6.99,-9.2 -28.89,-31.1 -50.22,-28.89 -22.06,2.29 -44.21,30.19 -43.29,67.42 V 503.1 c 0,-2.65 0,-5.3 0,-7.95 z"
       id="path8" />
    <path
       class="cls-4"
       d="m 0.03,425.39 c 7.05,-15.88 18.98,-35.48 38.46,-40.53 20,-5.19 38.23,7.47 51.54,15.22 15.22,8.86 65.3,1.26 153,32.92 36,13 111,22 140,17 29,-5 111,-49.96 111,-49.96 L 595.31,394 v 114 c 0,0 -12.57,-7 -41.01,-11.38 -56.18,-8.64 -83.49,2.15 -136.26,4.38 -86.83,3.66 -88.28,-28.33 -139.62,-13 -47.98,14.33 -56.51,45.19 -103.71,45.44 -7.88,0.04 -46.13,0.24 -65.35,-24.08 -8.29,-10.49 -5.76,-16.32 -15.82,-29.58 -6.99,-9.2 -28.89,-31.1 -50.22,-28.89 -22.06,2.29 -37.5230802,34.26256 -43.29,67.42 v -25.94768 z"
       id="path9"
       sodipodi:nodetypes="ccccsccccccccccccc" />
  </g>
  <path
     class="cls-3"
     d="m 0.02931663,216.96401 v 68.89506 C 2.5056449,258.89497 21.342671,238.95501 41.629514,237.1178 c 20.84772,-1.89264 41.240389,15.51327 50.468415,23.40056 11.757271,10.03335 15.037871,17.27921 19.249751,22.03851 22.81608,25.79209 82.84058,-4.28417 173.35355,7.26169 16.12788,2.05894 8.70948,2.16981 40.66893,7.44384 68.92447,11.37164 111.75225,18.05526 153.42652,6.05801 16.51944,-4.7593 18.53014,-1.97182 42.95477,-19.83703 46.56344,-34.05157 108.23883,-34.05157 108.23883,-34.05157 v -63.33595 l -148.4527,33.24384 -96.30166,20.58933 -113.23381,-21.38122 -84.66079,-16.62984 -84.66079,-3.95949 C 99.971384,196.09752 79.261237,182.29475 50.20142,185.58904 27.438249,188.17063 8.1990833,200.2629 0.02931663,216.96401 Z"
     id="path10" />
  <path
     class="cls-2"
     d="M 0.02931663,235.96955 V 163.115 L 84.69011,149.65275 c 46.25654,-4.18122 92.51308,-8.36244 138.76962,-12.54366 28.87991,18.56999 57.75983,37.13207 86.63974,55.70206 l 65.61211,20.98528 c 28.59418,-13.58104 57.19895,-27.15416 85.79313,-40.7352 1.51331,-26.22764 21.9589,-49.73906 53.14582,-61.00776 45.53692,-16.46355 88.1848,2.51031 90.99977,3.81694 8.11686,2.28859 16.22312,4.57716 24.33998,6.86575 v 98.19526 c 0,0 -8.7624,-22.17312 -82.84059,-7.91897 -21.99064,4.22873 -37.73754,9.16224 -50.24618,14.29375 -40.8065,16.73278 -42.24573,21.99098 -74.62849,33.22008 -27.5465,9.55821 -65.47454,22.71161 -91.80405,11.142 -18.07508,-7.94273 -18.60421,-19.30645 -36.39355,-21.79302 -13.69389,-1.91639 -26.55175,3.54771 -34.94374,8.17238 -14.04311,5.5512 -33.07063,10.73813 -49.50541,5.44826 -30.84827,-9.93039 -23.37695,-47.55344 -54.03474,-56.02673 -21.9589,-6.06594 -35.91735,10.19172 -63.167539,2.64494 C 70.879818,204.1432 68.752716,190.96602 54.572033,189.96032 42.497288,189.10507 24.845512,197.3012 0.02931663,235.97747 Z"
     id="path11" />
  <path
     class="cls-1"
     d="m 0.02931663,174.20157 c 0,0 25.75804637,-17.59597 59.34721637,-14.38878 19.577809,1.86888 23.73677,9.89079 40.129216,14.38878 50.500161,13.86612 102.111501,-36.17388 126.864191,-24.01825 22.80551,11.19742 -4.39177,61.83926 17.47188,69.72655 15.4506,5.57496 39.7694,-15.84586 54.61679,-8.48913 8.65657,4.29208 3.48167,13.09798 10.16988,20.47054 18.11741,19.97165 111.54059,16.42395 147.51085,-20.47054 22.742,-23.3293 5.02673,-42.04183 35.2083,-71.58752 9.04813,-8.86133 25.65223,-25.10314 51.68542,-28.32616 0,0 17.31313,-2.14605 86.94664,21.91179 v 0 -77.209981 C 575.76504,56.486033 521.5398,56.755278 467.32515,57.032442 447.01713,85.762475 426.70913,114.49251 406.40113,143.21462 363.85908,125.56323 321.32761,107.91184 278.78556,90.260451 254.44558,87.1087 227.66102,84.558791 198.70703,83.18089 149.5826,80.836874 105.432,82.373155 67.757952,85.509068 45.185268,91.321594 22.602001,97.126201 0.02931663,102.93873 Z"
     id="path12" />
  <path
     class="cls-4"
     d="m 0.02931663,133.41885 c 30.71070337,8.10111 72.99877037,14.71346 107.94250337,0 20.46676,-8.61584 20.76307,-17.1129 41.96001,-26.81364 36.01259,-16.471462 91.07385,-17.532605 128.85373,-1.09282 56.27826,24.49338 41.55787,73.61478 81.05212,80.56763 37.47299,6.59651 95.4868,-29.73574 107.48747,-68.58622 7.25966,-23.511431 -4.71985,-40.196707 9.46084,-47.941462 14.61457,-7.966487 36.08666,4.965195 79.87746,10.40553 30.30856,3.76943 56.11953,2.058933 73.31625,0 V 19.773675 c -33.76908,5.218603 -78.34299,9.653228 -130.62103,8.378273 -52.26746,-1.274955 -96.34398,-7.86354 -129.58392,-14.705533 -44.89139,1.274956 -89.78277,2.541991 -134.67416,3.816945 -40.96524,7.966487 -81.93049,15.932974 -122.89572,23.89946 L 15.903216,57.792663 0.02931663,66.701507 Z"
     id="path13" />
  <path
     class="cls-3"
     d="M 0.02931663,91.052349 C 12.590863,87.797651 30.750603,82.048477 49.661707,71.619189 67.281735,61.90261 71.324287,55.96338 82.510095,50.41218 110.59631,36.458951 145.11675,44.045327 168.85351,46.690263 c 72.02518,8.029839 80.51242,-25.396145 162.33708,-28.326166 87.74033,-3.143831 109.8368,34.138692 218.06504,32.99836 34.34054,-0.364272 62.41616,-4.434624 80.72407,-7.808107 V 0 H 0.02931663 v 91.068186 z"
     id="path14" />
</svg>
