<svg id="Layer_1" data-name="Layer 1" xmlns="http://www.w3.org/2000/svg" viewBox="0 0 957.14 363.64">
  <defs fill="#ffffff">
    <style>
      .cls-1 {
        fill: #ffffff;
        stroke-width: 0px;
      }
    </style>
  </defs>
  <path class="cls-1" d="M169.18,114.85c.24-2.67,1.1-15.23-7.54-23.55-4.9-4.72-10.58-5.89-15.86-6.91-14.91-2.87-28.16.9-36.59,4.4l3.46,84.21c9.49,2.05,25.58,3.84,41.92-3.19,6.25-2.69,14.58-6.27,17.43-14.13,1.83-5.06.28-8.83-1.26-20.73-1.11-8.63-1.45-15.67-1.57-20.1Z" fill="#ffffff"/>
  <path class="cls-1" d="M143.43,213.45l-34.86-.86c3.61,7.15.94,58.01.94,58.01l-2.67,29.05s9.42.79,25.59,0c16.17-.78,15.23-5.97,24.49-21.3,9.26-15.34,6.44-21.56,5.02-41.34s-18.53-23.55-18.53-23.55Z" fill="#ffffff"/>
  <path class="cls-1" d="M565.14,73.32c.64,28.73,1.29,57.47,1.93,86.2,4.39.92,10.75,1.5,16.96-1.32,4.51-2.05,6.39-5.08,9.08-7.23,13.39-10.67,23.22-6.91,30.15-13,10.57-9.28,9.87-37.24-5.86-54.01-12.76-13.6-33.53-17.85-52.26-10.65Z" fill="#ffffff"/>
  <path class="cls-1" d="M925.88,0H31.26C14,0,0,14,0,31.26v301.11c0,17.27,14,31.26,31.26,31.26h894.61c17.27,0,31.26-14,31.26-31.26V31.26c0-17.27-14-31.26-31.26-31.26ZM210.01,99.46c.4,7.57.26,24.45-.63,47.1-.96,24.54-2.15,29.66-5.65,34.54-9.79,13.66-29.88,14.61-37.87,14.57,24.11-.05,33.65,6.73,37.87,13.06,8.06,12.1.47,28.23,4.4,53.38.46,2.91,1.33,9.57,1.88,18.84.5,8.42.46,15.29.36,19.69-.11,3.4-.86,12.01-7.25,17.6-1.64,1.44-5.68,4.44-20.12,5.42-12.28.83-21.61-.59-22.47-.63-18.18-.8-24.24.3-59.64,1.52-9.12.31-22.57.72-39.1.99.12-15.92.22-40.14,0-69.71-.26-35.05-.82-59.63-1.26-81.02-.61-30.42-1.36-74.64-1.79-130.65,15.37-3.26,38.81-7.33,67.73-8.78,42.02-2.1,70.48-3.18,81.65,13.19,5.58,8.17-.28,10.26,1.88,50.87ZM350.61,315.85c-.55,2.71-1.19,5.33-1.88,7.85-7.62.04-17.81.07-29.83,0-43.05-.24-36.56-1.26-44.91-.63-19.71,1.48-29.66,5.17-42.08-1.13-4.28-2.17-7.4-4.79-9.42-6.72-.81-35.51-1.06-72.02-.63-109.48.64-55.85,2.71-109.63,5.91-161.18l118.43,2.3c.38,16.08.76,32.16,1.14,48.24-15.37,4.25-28.15,5.12-37.44,5.01-19.76-.23-33.92-5-40.2,2.51-3.06,3.66-3.04,8.8-2.49,12.72,1.46,5.01,1.99,9.51,2.06,13.35.24,13.02-4.68,19.03-2.82,29.82.45,2.6,1.51,6.56,4.41,11.18,4.62-.33,9.33-.61,14.12-.82,15.09-.67,29.53-.65,43.22-.12,2.16,11.97,4.32,23.93,6.48,35.9-16.11,2.04-32.79,3.55-50.01,4.42-2.31.12-4.62.22-6.91.31-.63.09-1.59.31-2.51.94-4.95,3.38-1.52,13.38-.63,27.32,1.2,18.68-3.29,26.59,2.01,30.45,2.24,1.64,5.54,1.72,12.12,1.89,5.1.13,9.33-.41,12.25-.94,16.54-.49,33.09-.99,49.63-1.48,2.59,13.47,3.7,30.07-.01,48.27ZM499.08,321.79s-54.34,10.95-82.53,4.53c-28.18-6.42-45.45-3.47-47-35.29-7.87-161.74-9.5-212.08-3.82-229.3,0,0-3.89-12.93,21.15-19.47,25.04-6.54,92.73,1.54,92.73,1.54,0,0,17.74,11.89,18.54,31.91.8,20.02,2.41,59.98,2.41,59.98l-51.64,5.38s-3.09-3.3-3.4-27.48c-.31-24.18,5.45-27.14-3.68-30.83-9.14-3.69-17.41-5.6-27.12-.89l1.72,170.51s.66,8.18,16.6,9.43c15.94,1.26,43.62,1.15,43.62,1.15v-28.07l-45.73.38s-2.86-30.76-.88-49.22c0,0,54.59-7.02,70.52-2.69l-1.48,138.43ZM656.18,202.9c.19,1.02.85,1.98.85,1.98s1.6,3.89,2.8,8.18c1.09,3.89.96,44.41-2.63,99.94l-.5,12.63s-9.91,4.09-46.79.44l-5.32-112.93s-7.75-14.21-25.79-17.47l1.14,128.99s-54.54,5-58.68.59c0,0,4.76-134.09,2.04-149.79l-2.04-132.82s90.36-2.3,106.23,3.08c15.87,5.38,32.57,15.41,33.32,41.17.76,25.76-.34,63.64-6.28,72.64-5.94,9.01-18.89,14.35-25.87,15.76,0,0,24.63,12.35,27.51,27.61ZM687.14,44.64l56.36-3.93c.63,21.29,1.22,42.66,1.76,64.12.56,22.21,1.06,44.34,1.51,66.38-.28,28.16-.55,56.33-.83,84.49-19.68,5.7-39.36,11.4-59.04,17.1-.5-37.04-1-74.08-1.5-111.12,0,0-2.83-104.97,1.74-117.04ZM743.72,326.41h-58.64l.97-34.77c19.06-6.8,38.11-13.61,57.16-20.41.82,1.8,1.58,3.68,2.26,5.66,6.57,19.1,2.47,37.58-1.76,49.52ZM890.21,213.23c-21.7,9.96-59.62,11.29-59.62,11.29l7.08,97.28s-45.77,15.78-57.24,1.92c0,0,2.98-44.95,2.35-64.1-.63-19.16-6.83-49.93-5.3-108.02,1.53-58.09,1.47-108.18,1.47-108.18,0,0,77.7-2.37,97.87,2.27,20.17,4.64,32.49,2.25,34.92,40.25,2.43,38-.7,94.23-.7,94.23,0,0,.87,23.12-20.83,33.07Z" fill="#ffffff"/>
  <path class="cls-1" d="M862.76,157.61c1.15-10.31,2.93-29.89-7.52-46.73-10.45-16.85-42.35-8.25-42.35-8.25-3.18,13.53-.59,82.67-.59,82.67,12.87,4.5,0,0,31.36,1.33,31.36,1.33,17.95-18.7,19.1-29.01Z" fill="#ffffff"/>
</svg>