<?xml version="1.0" encoding="UTF-8" standalone="no"?>
<svg
   id="Layer_2"
   data-name="Layer 2"
   viewBox="0 0 630.00041 141.65857"
   version="1.1"
   sodipodi:docname="nieuwsbriefdevider.svg"
   width="630.00043"
   height="141.65857"
   inkscape:version="1.3.2 (091e20ef0f, 2023-11-25)"
   xmlns:inkscape="http://www.inkscape.org/namespaces/inkscape"
   xmlns:sodipodi="http://sodipodi.sourceforge.net/DTD/sodipodi-0.dtd"
   xmlns="http://www.w3.org/2000/svg"
   xmlns:svg="http://www.w3.org/2000/svg">
  <sodipodi:namedview
     id="namedview14"
     pagecolor="#ffffff"
     bordercolor="#000000"
     borderopacity="0.25"
     inkscape:showpageshadow="2"
     inkscape:pageopacity="0.0"
     inkscape:pagecheckerboard="0"
     inkscape:deskcolor="#d1d1d1"
     inkscape:zoom="1.8296391"
     inkscape:cx="165.33315"
     inkscape:cy="102.20595"
     inkscape:window-width="938"
     inkscape:window-height="1006"
     inkscape:window-x="965"
     inkscape:window-y="57"
     inkscape:window-maximized="1"
     inkscape:current-layer="g9"
     showgrid="false" />
  <defs
     id="defs1">
    <style
       id="style1">
      .cls-1 {
        fill: #f69c33;
      }

      .cls-1, .cls-2, .cls-3, .cls-4 {
        stroke-width: 0px;
      }

      .cls-2 {
        fill: #ee645a;
      }

      .cls-3 {
        fill: #846cae;
      }

      .cls-4 {
        fill: #178baa;
      }
    </style>
  </defs>
  <g
     id="g9"
     transform="matrix(1.0582599,0,0,0.79189728,-0.0024311,-282.12729)">
    <g
       id="g1"
       transform="matrix(1.05832,0,0,1.0991696,-17.3596,-44.200879)">
      <rect
         style="fill:#178baa;fill-opacity:1;stroke-width:1.09237"
         id="rect26"
         width="562.5116"
         height="162.74562"
         x="16.405149"
         y="364.33725"
         rx="2.7937646"
         ry="1.2527423e-05" />
      <path
         d="M 577.2407,364.33726 H 16.405149 v 31.37562 c 0,0 51.017959,-35.74007 74.641627,-29.09669 23.623654,6.6434 7.559617,52.92953 46.302424,70.80413 38.74281,17.87461 137.33429,-17.71933 219.72428,-41.1954 55.76129,-15.88854 82.42261,-2.57656 56.30557,42.74896 -9.07997,15.75811 37.14113,44.13958 68.31491,21.29981 38.88146,-28.48686 66.87723,-1.9195 82.56479,22.45577 9.65316,14.99905 14.64668,16.42192 14.64668,16.42192 0.0223,-44.74081 0.004,-89.48177 0.009,-134.22256 z"
         style="fill:#846cae;fill-opacity:1;stroke-width:0px"
         id="path24" />
    </g>
  </g>
</svg>
